<?xml version="1.0" encoding="UTF-8" standalone="no"?>
<svg
   xmlns:dc="http://purl.org/dc/elements/1.1/"
   xmlns:cc="http://creativecommons.org/ns#"
   xmlns:rdf="http://www.w3.org/1999/02/22-rdf-syntax-ns#"
   xmlns:svg="http://www.w3.org/2000/svg"
   xmlns="http://www.w3.org/2000/svg"
   xmlns:sodipodi="http://sodipodi.sourceforge.net/DTD/sodipodi-0.dtd"
   xmlns:inkscape="http://www.inkscape.org/namespaces/inkscape"
   width="200mm"
   height="200mm"
   viewBox="0 0 200 200"
   version="1.1"
   id="svg8"
   inkscape:version="1.0.2 (e86c870879, 2021-01-15)"
   sodipodi:docname="LOGO.svg"
   inkscape:export-filename="/home/bresilla/data/docs/DESIGN/lexo/LOGO.png"
   inkscape:export-xdpi="480"
   inkscape:export-ydpi="480">
  <defs
     id="defs2" />
  <sodipodi:namedview
     id="base"
     pagecolor="#ffffff"
     bordercolor="#666666"
     borderopacity="1.0"
     inkscape:pageopacity="0.0"
     inkscape:pageshadow="2"
     inkscape:zoom="1.5030666"
     inkscape:cx="291.78693"
     inkscape:cy="472.32372"
     inkscape:document-units="mm"
     inkscape:current-layer="layer1"
     inkscape:document-rotation="0"
     showgrid="false"
     inkscape:window-width="3816"
     inkscape:window-height="2132"
     inkscape:window-x="10"
     inkscape:window-y="14"
     inkscape:window-maximized="1" />
  <metadata
     id="metadata5">
    <rdf:RDF>
      <cc:Work
         rdf:about="">
        <dc:format>image/svg+xml</dc:format>
        <dc:type
           rdf:resource="http://purl.org/dc/dcmitype/StillImage" />
        <dc:title />
      </cc:Work>
    </rdf:RDF>
  </metadata>
  <g
     inkscape:label="Layer 1"
     inkscape:groupmode="layer"
     id="layer1">
    <path
       style="fill:#ff0000;stroke-width:0.810521"
       d="m 120.99157,177.72247 c 0,-0.38029 2.048,-3.95474 4.55109,-7.94322 9.41059,-14.99489 21.32744,-28.43052 33.02734,-37.23654 3.31008,-2.49137 6.23426,-5.33524 6.49821,-6.31976 0.26408,-0.98448 0.48489,-22.22211 0.491,-47.194732 l 0.0124,-45.404761 4.76333,-2.618657 c 2.61984,-1.440261 5.173,-2.618652 5.67367,-2.618652 0.66485,0 0.91032,15.527622 0.91032,57.589212 v 57.58921 l -2.6042,0.90783 c -11.69454,4.07673 -33.72373,17.45223 -46.63502,28.31544 -3.67776,3.09433 -6.6868,5.31492 -6.6868,4.93463 z"
       id="path121" />
    <path
       style="fill:#55d400;stroke-width:0.810521"
       d="M 72.765503,172.08457 C 59.82849,161.34681 41.479824,150.18979 27.984172,144.85505 l -3.444719,-1.36167 V 85.477423 27.461464 l 5.673656,3.064469 5.673652,3.06447 0.01106,45.421301 c 0.0064,24.981706 0.224975,46.218936 0.486436,47.193856 0.26146,0.97493 3.083169,3.70539 6.27048,6.06769 7.757465,5.74953 18.522037,16.69352 25.078019,25.49598 5.624605,7.55199 13.200808,19.57558 12.650293,20.07632 -0.177547,0.16145 -3.605458,-2.43091 -7.617546,-5.76098 z"
       id="path119" />
    <path
       style="fill:#d42aff;stroke-width:0.810521"
       d="M 105.59165,132.43821 V 82.491148 l 2.88171,-8.613123 c 7.56317,-22.605487 19.09337,-40.877196 36.0467,-57.12254 4.95473,-4.74781 9.34717,-8.6323848 9.761,-8.6323848 0.45578,0 0.75244,22.5025998 0.75244,57.0720088 V 122.2671 l -5.06579,4.04744 c -14.75031,11.78519 -30.46353,31.51137 -40.38645,50.70062 -1.5256,2.95029 -3.04739,5.3655 -3.38172,5.36715 -0.33435,0.001 -0.60789,-22.47321 -0.60789,-49.9441 z"
       id="path117" />
    <path
       style="fill:#5555ff;stroke-width:0.810521"
       d="M 91.875768,177.01516 C 81.952851,157.82591 66.23962,138.09973 51.489305,126.31454 L 46.423544,122.2671 V 65.195109 c 0,-34.569409 0.296658,-57.0720088 0.752417,-57.0720088 1.758652,0 19.365648,18.0286428 25.286385,25.8919198 7.604415,10.099393 16.218893,26.713763 20.477434,39.493966 l 2.925598,8.779906 v 50.048198 c 0,27.52652 -0.27356,50.04684 -0.60789,50.04522 -0.334346,-10e-4 -1.856117,-2.41686 -3.38172,-5.36715 z"
       id="path115" />
    <path
       style="fill:#ff7f2a;stroke-width:0.810521"
       d="m 129.17165,185.13192 c 1.53824,-1.8535 11.5357,-9.87925 17.75662,-14.25466 8.19961,-5.76713 18.88583,-11.61088 28.70768,-15.69879 4.93987,-2.056 9.61987,-4.47538 10.4,-5.37641 1.31734,-1.52152 1.4184,-5.14867 1.4184,-50.903596 0,-44.218972 0.1318,-49.315816 1.28476,-49.758322 0.7066,-0.271141 3.25976,-0.725123 5.67365,-1.008833 l 4.38892,-0.515821 v 58.375922 58.37593 l -6.6868,0.96819 c -17.67617,2.55933 -41.25072,10.13757 -58.28352,18.7357 -5.3631,2.70729 -6.18074,2.89342 -4.65971,1.06069 z"
       id="path113" />
    <path
       style="fill:#ffd42a;stroke-width:0.810521"
       d="M 67.902376,184.24678 C 51.457236,175.66176 25.770775,167.56877 6.5053421,164.90257 L 2.6553632,164.36975 V 105.99262 47.615488 l 4.3889126,0.515821 c 2.4138966,0.283702 4.9670392,0.737689 5.6736532,1.008833 1.153144,0.442506 1.284742,5.53935 1.284742,49.758322 0,45.741206 0.101464,49.385096 1.418414,50.939566 0.780125,0.92082 4.25276,2.78416 7.71696,4.14078 13.713132,5.37012 27.781302,13.5971 40.193114,23.50468 11.19213,8.93398 12.534904,10.92068 4.571217,6.76329 z"
       id="path109" />
  </g>
</svg>
